# Blender 4.0.2
# www.blender.org
mtllib ForkLever.mtl
o Cylinder
v -0.055129 -0.187285 -0.077027
v -0.055129 -0.033232 -0.077027
v -0.040102 -0.187285 -0.075547
v -0.040102 -0.033232 -0.075547
v -0.025652 -0.187285 -0.071163
v -0.025652 -0.033232 -0.071163
v -0.012335 -0.187285 -0.064045
v -0.012335 -0.033232 -0.064045
v -0.000663 -0.187285 -0.054466
v -0.000663 -0.033232 -0.054466
v 0.008916 -0.187285 -0.042794
v 0.008916 -0.033232 -0.042794
v 0.016034 -0.187285 -0.029477
v 0.016034 -0.033232 -0.029477
v 0.020417 -0.187285 -0.015027
v 0.020417 -0.033232 -0.015027
v 0.021897 -0.187285 -0.000000
v 0.021897 -0.033232 -0.000000
v 0.020417 -0.187285 0.015027
v 0.020417 -0.033232 0.015027
v 0.016034 -0.187285 0.029477
v 0.016034 -0.033232 0.029477
v 0.008916 -0.187285 0.042794
v 0.008916 -0.033232 0.042794
v -0.000663 -0.187285 0.054466
v -0.000663 -0.033232 0.054466
v -0.012335 -0.187285 0.064045
v -0.012335 -0.033232 0.064045
v -0.025652 -0.187285 0.071163
v -0.025652 -0.033232 0.071163
v -0.040102 -0.187285 0.075546
v -0.040102 -0.033232 0.075546
v -0.055129 -0.187285 0.077027
v -0.055129 -0.033232 0.077027
v -0.070156 -0.187285 0.075546
v -0.070156 -0.033232 0.075546
v -0.084606 -0.187285 0.071163
v -0.084606 -0.033232 0.071163
v -0.097923 -0.187285 0.064045
v -0.097923 -0.033232 0.064045
v -0.109595 -0.187285 0.054466
v -0.109595 -0.033232 0.054466
v -0.119174 -0.187285 0.042794
v -0.119174 -0.033232 0.042794
v -0.126292 -0.187285 0.029477
v -0.126292 -0.033232 0.029477
v -0.130676 -0.187285 0.015027
v -0.130676 -0.033232 0.015027
v -0.132156 -0.187285 -0.000000
v -0.132156 -0.033232 -0.000000
v -0.130676 -0.187285 -0.015027
v -0.130676 -0.033232 -0.015027
v -0.126292 -0.187285 -0.029477
v -0.126292 -0.033232 -0.029477
v -0.119174 -0.187285 -0.042794
v -0.119174 -0.033232 -0.042794
v -0.109595 -0.187285 -0.054466
v -0.109595 -0.033232 -0.054466
v -0.097923 -0.187285 -0.064045
v -0.097923 -0.033232 -0.064045
v -0.084606 -0.187285 -0.071163
v -0.084606 -0.033232 -0.071163
v -0.070156 -0.187285 -0.075547
v -0.070156 -0.033232 -0.075547
v -0.055129 -0.264577 -0.077027
v -0.040102 -0.264577 -0.075547
v -0.025652 -0.264577 -0.071163
v -0.012335 -0.264577 -0.064045
v -0.000663 -0.264577 -0.054466
v 0.008916 -0.264577 -0.042794
v 0.016034 -0.264577 -0.029477
v 0.020417 -0.264577 -0.015027
v 0.021897 -0.264577 -0.000000
v 0.020417 -0.264577 0.015027
v 0.016034 -0.264577 0.029477
v 0.008916 -0.264577 0.042794
v -0.000663 -0.264577 0.054466
v -0.012335 -0.264577 0.064045
v -0.025652 -0.264577 0.071163
v -0.040102 -0.264577 0.075546
v -0.055129 -0.264577 0.077027
v -0.070156 -0.264577 0.075546
v -0.084606 -0.264577 0.071163
v -0.097923 -0.264577 0.064045
v -0.109595 -0.264577 0.054466
v -0.119174 -0.264577 0.042794
v -0.126292 -0.264577 0.029477
v -0.130676 -0.264577 0.015027
v -0.132156 -0.264577 -0.000000
v -0.130676 -0.264577 -0.015027
v -0.126292 -0.264577 -0.029477
v -0.119174 -0.264577 -0.042794
v -0.109595 -0.264577 -0.054466
v -0.097923 -0.264577 -0.064045
v -0.084606 -0.264577 -0.071163
v -0.070156 -0.264577 -0.075547
v -0.055129 -0.302557 -0.077027
v -0.040278 -0.304851 -0.075547
v -0.025998 -0.307057 -0.071163
v -0.012837 -0.309089 -0.064045
v -0.001301 -0.310871 -0.054466
v 0.008166 -0.312333 -0.042794
v 0.015200 -0.313420 -0.029477
v 0.019532 -0.314089 -0.015027
v 0.020995 -0.314314 -0.000000
v 0.019532 -0.314089 0.015027
v 0.015200 -0.313420 0.029477
v 0.008166 -0.312333 0.042794
v -0.001301 -0.310871 0.054466
v -0.012837 -0.309089 0.064045
v -0.025998 -0.307057 0.071163
v -0.040278 -0.304851 0.075546
v -0.055129 -0.302557 0.077027
v -0.069980 -0.300264 0.075546
v -0.084260 -0.298058 0.071163
v -0.097421 -0.296026 0.064045
v -0.108957 -0.294244 0.054466
v -0.118424 -0.292782 0.042794
v -0.125458 -0.291695 0.029477
v -0.129790 -0.291026 0.015027
v -0.131253 -0.290801 -0.000000
v -0.129790 -0.291026 -0.015027
v -0.125458 -0.291695 -0.029477
v -0.118424 -0.292782 -0.042794
v -0.108957 -0.294244 -0.054466
v -0.097421 -0.296026 -0.064045
v -0.084260 -0.298058 -0.071163
v -0.069980 -0.300264 -0.075547
v -0.059837 -0.333041 -0.077027
v -0.046133 -0.339207 -0.075547
v -0.032956 -0.345137 -0.071163
v -0.020812 -0.350601 -0.064045
v -0.010168 -0.355391 -0.054466
v -0.001432 -0.359322 -0.042794
v 0.005059 -0.362243 -0.029477
v 0.009056 -0.364041 -0.015027
v 0.010406 -0.364649 -0.000000
v 0.009056 -0.364041 0.015027
v 0.005059 -0.362243 0.029477
v -0.001432 -0.359322 0.042794
v -0.010168 -0.355391 0.054466
v -0.020812 -0.350601 0.064045
v -0.032956 -0.345137 0.071163
v -0.046133 -0.339207 0.075546
v -0.059837 -0.333041 0.077027
v -0.073541 -0.326875 0.075546
v -0.086718 -0.320945 0.071163
v -0.098862 -0.315481 0.064045
v -0.109506 -0.310691 0.054466
v -0.118242 -0.306760 0.042794
v -0.124733 -0.303839 0.029477
v -0.128730 -0.302041 0.015027
v -0.130080 -0.301433 -0.000000
v -0.128730 -0.302041 -0.015027
v -0.124733 -0.303839 -0.029477
v -0.118242 -0.306760 -0.042794
v -0.109506 -0.310691 -0.054466
v -0.098862 -0.315481 -0.064045
v -0.086718 -0.320945 -0.071163
v -0.073541 -0.326875 -0.075547
v -0.371609 -0.660847 -0.077027
v -0.361033 -0.671522 -0.075547
v -0.350863 -0.681787 -0.071163
v -0.341490 -0.691247 -0.064045
v -0.333275 -0.699539 -0.054466
v -0.326533 -0.706344 -0.042794
v -0.321523 -0.711400 -0.029477
v -0.318438 -0.714514 -0.015027
v -0.317396 -0.715565 -0.000000
v -0.318438 -0.714514 0.015027
v -0.321523 -0.711400 0.029477
v -0.326533 -0.706344 0.042794
v -0.333275 -0.699539 0.054466
v -0.341490 -0.691247 0.064045
v -0.350863 -0.681787 0.071163
v -0.361033 -0.671522 0.075546
v -0.371609 -0.660847 0.077027
v -0.382185 -0.650172 0.075546
v -0.392355 -0.639908 0.071163
v -0.401728 -0.630448 0.064045
v -0.409943 -0.622156 0.054466
v -0.416685 -0.615351 0.042794
v -0.421695 -0.610294 0.029477
v -0.424780 -0.607181 0.015027
v -0.425822 -0.606129 -0.000000
v -0.424780 -0.607181 -0.015027
v -0.421695 -0.610294 -0.029477
v -0.416685 -0.615351 -0.042794
v -0.409943 -0.622156 -0.054466
v -0.401728 -0.630448 -0.064045
v -0.392355 -0.639908 -0.071163
v -0.382185 -0.650172 -0.075547
v -0.040102 -0.020410 -0.075547
v -0.055129 -0.020410 -0.077027
v -0.025652 -0.020410 -0.071163
v -0.012335 -0.020410 -0.064045
v -0.000663 -0.020410 -0.054466
v 0.008916 -0.020410 -0.042794
v 0.016034 -0.020410 -0.029477
v 0.020417 -0.020410 -0.015027
v 0.021897 -0.020410 -0.000000
v 0.020417 -0.020410 0.015027
v 0.016034 -0.020410 0.029477
v 0.008916 -0.020410 0.042794
v -0.000663 -0.020410 0.054466
v -0.012335 -0.020410 0.064045
v -0.025652 -0.020410 0.071163
v -0.040102 -0.020410 0.075546
v -0.055129 -0.020410 0.077027
v -0.070156 -0.020410 0.075546
v -0.084606 -0.020410 0.071163
v -0.097923 -0.020410 0.064045
v -0.109595 -0.020410 0.054466
v -0.119174 -0.020410 0.042794
v -0.126292 -0.020410 0.029477
v -0.130676 -0.020410 0.015027
v -0.132156 -0.020410 -0.000000
v -0.130676 -0.020410 -0.015027
v -0.126292 -0.020410 -0.029477
v -0.119174 -0.020410 -0.042794
v -0.109595 -0.020410 -0.054466
v -0.097923 -0.020410 -0.064045
v -0.084606 -0.020410 -0.071163
v -0.070156 -0.020410 -0.075547
v -0.035179 -0.000263 -0.100296
v -0.055129 -0.000263 -0.102261
v -0.015995 -0.000263 -0.094477
v 0.001684 -0.000263 -0.085027
v 0.017180 -0.000263 -0.072310
v 0.029898 -0.000263 -0.056813
v 0.039348 -0.000263 -0.039134
v 0.045167 -0.000263 -0.019950
v 0.047132 -0.000263 -0.000000
v 0.045167 -0.000263 0.019950
v 0.039348 -0.000263 0.039134
v 0.029898 -0.000263 0.056813
v 0.017180 -0.000263 0.072310
v 0.001684 -0.000263 0.085027
v -0.015995 -0.000263 0.094477
v -0.035179 -0.000263 0.100296
v -0.055129 -0.000263 0.102261
v -0.075079 -0.000263 0.100296
v -0.094263 -0.000263 0.094477
v -0.111942 -0.000263 0.085027
v -0.127439 -0.000263 0.072310
v -0.140156 -0.000263 0.056813
v -0.149606 -0.000263 0.039134
v -0.155425 -0.000263 0.019950
v -0.157390 -0.000263 -0.000000
v -0.155425 -0.000263 -0.019950
v -0.149606 -0.000263 -0.039134
v -0.140156 -0.000263 -0.056813
v -0.127439 -0.000263 -0.072310
v -0.111942 -0.000263 -0.085027
v -0.094263 -0.000263 -0.094477
v -0.075079 -0.000263 -0.100296
v -0.035179 0.038201 -0.100296
v -0.055129 0.038201 -0.102261
v -0.015995 0.038201 -0.094477
v 0.001684 0.038201 -0.085027
v 0.017180 0.038201 -0.072310
v 0.029898 0.038201 -0.056813
v 0.039348 0.038201 -0.039134
v 0.045167 0.038201 -0.019950
v 0.047132 0.038201 -0.000000
v 0.045167 0.038201 0.019950
v 0.039348 0.038201 0.039134
v 0.029898 0.038201 0.056813
v 0.017180 0.038201 0.072310
v 0.001684 0.038201 0.085027
v -0.015995 0.038201 0.094477
v -0.035179 0.038201 0.100296
v -0.055129 0.038201 0.102261
v -0.075079 0.038201 0.100296
v -0.094263 0.038201 0.094477
v -0.111942 0.038201 0.085027
v -0.127439 0.038201 0.072310
v -0.140156 0.038201 0.056813
v -0.149606 0.038201 0.039134
v -0.155425 0.038201 0.019950
v -0.157390 0.038201 -0.000000
v -0.155425 0.038201 -0.019950
v -0.149606 0.038201 -0.039134
v -0.140156 0.038201 -0.056813
v -0.127439 0.038201 -0.072310
v -0.111942 0.038201 -0.085027
v -0.094263 0.038201 -0.094477
v -0.075079 0.038201 -0.100296
v -0.032402 0.078496 -0.114254
v -0.055129 0.078496 -0.116493
v -0.010549 0.078496 -0.107625
v 0.009591 0.078496 -0.096860
v 0.027244 0.078496 -0.082373
v 0.041731 0.078496 -0.064720
v 0.052496 0.078496 -0.044580
v 0.059125 0.078496 -0.022727
v 0.061364 0.078496 -0.000000
v 0.059125 0.078496 0.022727
v 0.052496 0.078496 0.044580
v 0.041731 0.078496 0.064720
v 0.027244 0.078496 0.082373
v 0.009591 0.078496 0.096860
v -0.010549 0.078496 0.107625
v -0.032402 0.078496 0.114254
v -0.055129 0.078496 0.116493
v -0.077856 0.078496 0.114254
v -0.099709 0.078496 0.107625
v -0.119849 0.078496 0.096860
v -0.137502 0.078496 0.082373
v -0.151989 0.078496 0.064720
v -0.162754 0.078496 0.044580
v -0.169383 0.078496 0.022727
v -0.171622 0.078496 -0.000000
v -0.169383 0.078496 -0.022727
v -0.162754 0.078496 -0.044580
v -0.151989 0.078496 -0.064720
v -0.137502 0.078496 -0.082373
v -0.119849 0.078496 -0.096860
v -0.099709 0.078496 -0.107625
v -0.077856 0.078496 -0.114254
v -0.033776 0.129781 -0.107351
v -0.030563 0.107179 -0.123501
v -0.055129 0.107179 -0.125921
v -0.055129 0.129781 -0.109454
v -0.013243 0.129781 -0.101122
v -0.006941 0.107179 -0.116336
v 0.005680 0.129781 -0.091008
v 0.014829 0.107179 -0.104699
v 0.022267 0.129781 -0.077396
v 0.033910 0.107179 -0.089039
v 0.035878 0.129781 -0.060809
v 0.049570 0.107179 -0.069958
v 0.045993 0.129781 -0.041886
v 0.061207 0.107179 -0.048188
v 0.052222 0.129781 -0.021353
v 0.068372 0.107179 -0.024566
v 0.054325 0.129781 -0.000000
v 0.070792 0.107179 -0.000000
v 0.052222 0.129781 0.021353
v 0.068372 0.107179 0.024566
v 0.045993 0.129781 0.041886
v 0.061207 0.107179 0.048188
v 0.035878 0.129781 0.060809
v 0.049570 0.107179 0.069958
v 0.022267 0.129781 0.077396
v 0.033910 0.107179 0.089039
v 0.005680 0.129781 0.091008
v 0.014829 0.107179 0.104699
v -0.013243 0.129781 0.101122
v -0.006941 0.107179 0.116336
v -0.033776 0.129781 0.107351
v -0.030563 0.107179 0.123501
v -0.055129 0.129781 0.109454
v -0.055129 0.107179 0.125921
v -0.076482 0.129781 0.107351
v -0.079695 0.107179 0.123501
v -0.097015 0.129781 0.101122
v -0.103317 0.107179 0.116336
v -0.115938 0.129781 0.091008
v -0.125087 0.107179 0.104699
v -0.132525 0.129781 0.077396
v -0.144168 0.107179 0.089039
v -0.146137 0.129781 0.060809
v -0.159828 0.107179 0.069958
v -0.156251 0.129781 0.041886
v -0.171465 0.107179 0.048188
v -0.162480 0.129781 0.021353
v -0.178630 0.107179 0.024566
v -0.164583 0.129781 -0.000000
v -0.181050 0.107178 -0.000000
v -0.162480 0.129781 -0.021353
v -0.178630 0.107179 -0.024566
v -0.156251 0.129781 -0.041886
v -0.171465 0.107179 -0.048188
v -0.146137 0.129781 -0.060809
v -0.159828 0.107179 -0.069958
v -0.132525 0.129781 -0.077396
v -0.144168 0.107179 -0.089039
v -0.115938 0.129781 -0.091008
v -0.125087 0.107179 -0.104699
v -0.097015 0.129781 -0.101122
v -0.103317 0.107179 -0.116336
v -0.076482 0.129781 -0.107351
v -0.079695 0.107179 -0.123501
vn -0.0000 -0.0000 -1.0000
vn 0.1951 -0.0000 -0.9808
vn 0.3827 -0.0000 -0.9239
vn 0.5556 -0.0000 -0.8315
vn 0.7071 -0.0000 -0.7071
vn 0.8315 -0.0000 -0.5556
vn 0.9239 -0.0000 -0.3827
vn 0.9808 -0.0000 -0.1951
vn 1.0000 -0.0000 -0.0000
vn 0.9808 -0.0000 0.1951
vn 0.9239 -0.0000 0.3827
vn 0.8315 -0.0000 0.5556
vn 0.7071 -0.0000 0.7071
vn 0.5556 -0.0000 0.8315
vn 0.3827 -0.0000 0.9239
vn 0.1951 -0.0000 0.9808
vn -0.0000 -0.0000 1.0000
vn -0.1951 -0.0000 0.9808
vn -0.3827 -0.0000 0.9239
vn -0.5556 -0.0000 0.8315
vn -0.7071 -0.0000 0.7071
vn -0.8315 -0.0000 0.5556
vn -0.9239 -0.0000 0.3827
vn -0.9808 -0.0000 0.1951
vn -1.0000 -0.0000 -0.0000
vn -0.9808 -0.0000 -0.1951
vn -0.9239 -0.0000 -0.3827
vn -0.8315 -0.0000 -0.5556
vn -0.7071 -0.0000 -0.7071
vn -0.5556 -0.0000 -0.8315
vn -0.3827 -0.0000 -0.9239
vn 0.7448 -0.4446 -0.4977
vn 0.8276 -0.4446 -0.3428
vn -0.1951 -0.0000 -0.9808
vn 0.3837 -0.0016 -0.9234
vn 0.1957 -0.0005 -0.9807
vn 0.3875 -0.0369 -0.9211
vn 0.2006 -0.0176 -0.9795
vn 0.8322 -0.0065 0.5545
vn 0.9242 -0.0078 0.3818
vn -0.7087 -0.0077 0.7054
vn -0.5572 -0.0045 0.8303
vn -0.5572 -0.0045 -0.8303
vn -0.7087 -0.0077 -0.7054
vn 0.9809 -0.0087 -0.1946
vn 0.9242 -0.0078 -0.3818
vn -0.0000 -0.0001 1.0000
vn 0.1957 -0.0005 0.9807
vn -0.9808 -0.0162 -0.1941
vn -0.9999 -0.0169 -0.0000
vn 0.5568 -0.0032 -0.8307
vn 0.7081 -0.0049 0.7060
vn -0.8327 -0.0110 0.5537
vn -0.3840 -0.0021 -0.9233
vn 1.0000 -0.0090 -0.0000
vn -0.1958 -0.0006 0.9806
vn -0.9245 -0.0141 -0.3810
vn 0.7081 -0.0049 -0.7060
vn 0.5568 -0.0032 0.8307
vn -0.9245 -0.0141 0.3810
vn -0.1958 -0.0006 -0.9806
vn 0.9809 -0.0087 0.1946
vn -0.3840 -0.0021 0.9233
vn -0.8327 -0.0110 -0.5537
vn 0.8322 -0.0065 -0.5545
vn 0.3837 -0.0016 0.9234
vn -0.9808 -0.0162 0.1941
vn -0.0000 -0.0001 -1.0000
vn 0.7077 -0.0749 -0.7025
vn 0.8294 -0.0905 -0.5512
vn 0.7391 -0.3822 -0.5547
vn 0.6302 -0.3251 -0.7051
vn -0.5606 0.0155 -0.8279
vn -0.7147 0.0034 -0.6994
vn 0.0047 -0.0005 1.0000
vn 0.2006 -0.0176 0.9795
vn 0.5586 -0.0565 -0.8275
vn -0.3839 0.0181 -0.9232
vn -0.1928 0.0121 0.9812
vn -0.1928 0.0121 -0.9812
vn -0.3839 0.0181 0.9232
vn 0.0047 -0.0005 -1.0000
vn -0.5606 0.0155 0.8279
vn 0.9196 -0.1025 -0.3793
vn -0.7147 0.0034 0.6994
vn 0.9750 -0.1100 -0.1932
vn -0.8388 -0.0170 0.5442
vn 0.9936 -0.1125 -0.0000
vn -0.9279 -0.0408 0.3705
vn 0.9750 -0.1100 0.1932
vn -0.9805 -0.0603 0.1870
vn 0.9196 -0.1025 0.3793
vn -0.9977 -0.0679 -0.0000
vn 0.8294 -0.0905 0.5512
vn -0.9805 -0.0603 -0.1870
vn 0.7077 -0.0749 0.7025
vn -0.9279 -0.0408 -0.3705
vn 0.5586 -0.0565 0.8275
vn -0.8388 -0.0170 -0.5442
vn 0.3875 -0.0369 0.9211
vn 0.8707 -0.4513 -0.1952
vn 0.8878 -0.4603 -0.0000
vn 0.0445 -0.9990 -0.0000
vn 0.0346 -0.9895 -0.1406
vn 0.0162 -0.0092 -0.9998
vn -0.1552 0.0738 -0.9851
vn -0.4831 0.2156 0.8486
vn -0.3233 0.1502 0.9343
vn 0.8204 -0.4249 -0.3826
vn -0.6296 0.2664 0.7298
vn -0.7568 0.3003 0.5805
vn -0.8574 0.3180 0.4046
vn 0.8707 -0.4513 0.1952
vn -0.9228 0.3242 0.2081
vn 0.8204 -0.4249 0.3826
vn -0.9456 0.3253 -0.0000
vn 0.7391 -0.3822 0.5547
vn -0.9228 0.3242 -0.2081
vn 0.6302 -0.3251 0.7051
vn -0.8574 0.3180 -0.4046
vn 0.4982 -0.2560 0.8284
vn -0.7568 0.3003 -0.5805
vn 0.3483 -0.1780 0.9203
vn 0.1858 -0.0945 -0.9780
vn -0.6296 0.2664 -0.7298
vn 0.1858 -0.0945 0.9780
vn 0.3483 -0.1780 -0.9203
vn -0.4831 0.2156 -0.8486
vn 0.0162 -0.0092 0.9998
vn 0.4982 -0.2560 -0.8284
vn -0.3233 0.1502 -0.9343
vn -0.1552 0.0738 0.9851
vn -0.4862 -0.4836 -0.7278
vn -0.3816 -0.5859 -0.7149
vn -0.2810 -0.6839 -0.6733
vn -0.1886 -0.7736 -0.6049
vn -0.1083 -0.8515 -0.5131
vn -0.0429 -0.9146 -0.4020
vn 0.0052 -0.9611 -0.2762
vn 0.0346 -0.9895 0.1406
vn 0.0052 -0.9611 0.2762
vn -0.0429 -0.9146 0.4020
vn -0.1083 -0.8515 0.5131
vn -0.1886 -0.7736 0.6049
vn -0.2810 -0.6839 0.6733
vn -0.3816 -0.5859 0.7149
vn -0.4862 -0.4836 0.7278
vn -0.5901 -0.3816 0.7115
vn -0.6889 -0.2842 0.6668
vn -0.7785 -0.1956 0.5964
vn -0.8556 -0.1190 0.5038
vn -0.9176 -0.0572 0.3933
vn -0.9629 -0.0120 0.2695
vn -0.9905 0.0156 0.1369
vn -0.9997 0.0248 -0.0000
vn -0.9905 0.0156 -0.1369
vn -0.9629 -0.0120 -0.2695
vn -0.9176 -0.0572 -0.3933
vn -0.8556 -0.1190 -0.5038
vn -0.7785 -0.1956 -0.5964
vn -0.6889 -0.2842 -0.6668
vn -0.5901 -0.3816 -0.7115
vn 0.3428 -0.4446 0.8276
vn 0.4977 -0.4446 0.7448
vn 0.5033 -0.4234 0.7533
vn 0.3467 -0.4234 0.8370
vn 0.1748 -0.4446 0.8785
vn -0.8785 -0.4446 0.1748
vn -0.8957 -0.4446 -0.0000
vn 0.1748 -0.4446 -0.8785
vn 0.3428 -0.4446 -0.8276
vn 0.8276 -0.4446 0.3428
vn 0.7448 -0.4446 0.4977
vn -0.4977 -0.4446 0.7448
vn -0.6334 -0.4446 0.6334
vn -0.6334 -0.4446 -0.6334
vn -0.4977 -0.4446 -0.7448
vn 0.8785 -0.4446 -0.1748
vn -0.0000 -0.4446 0.8957
vn -0.8785 -0.4446 -0.1748
vn 0.4977 -0.4446 -0.7448
vn 0.6334 -0.4446 0.6334
vn -0.7448 -0.4446 0.4977
vn -0.3428 -0.4446 -0.8276
vn 0.8957 -0.4446 -0.0000
vn -0.1748 -0.4446 0.8785
vn -0.8276 -0.4446 -0.3428
vn 0.6334 -0.4446 -0.6334
vn -0.8276 -0.4446 0.3428
vn -0.1748 -0.4446 -0.8785
vn 0.8785 -0.4446 0.1748
vn -0.3428 -0.4446 0.8276
vn -0.7448 -0.4446 -0.4977
vn -0.0000 -0.4446 -0.8957
vn -0.1767 -0.4234 0.8885
vn -0.0000 -0.4234 0.9059
vn -0.0000 -0.1707 0.9853
vn -0.1922 -0.1707 0.9664
vn -0.0000 -0.4234 -0.9059
vn 0.1767 -0.4234 -0.8885
vn -0.7533 -0.4234 -0.5033
vn -0.6406 -0.4234 -0.6406
vn 0.1767 -0.4234 0.8885
vn 0.3467 -0.4234 -0.8370
vn -0.5033 -0.4234 -0.7533
vn 0.5033 -0.4234 -0.7533
vn -0.3467 -0.4234 -0.8370
vn 0.6406 -0.4234 -0.6406
vn -0.1767 -0.4234 -0.8885
vn -0.3467 -0.4234 0.8370
vn 0.7533 -0.4234 -0.5033
vn -0.5033 -0.4234 0.7533
vn 0.8370 -0.4234 -0.3467
vn -0.6406 -0.4234 0.6406
vn 0.8885 -0.4234 -0.1767
vn -0.7533 -0.4234 0.5033
vn 0.9059 -0.4234 -0.0000
vn -0.8370 -0.4234 0.3467
vn 0.8885 -0.4234 0.1767
vn -0.8885 -0.4234 0.1767
vn 0.8370 -0.4234 0.3467
vn -0.9059 -0.4234 -0.0000
vn 0.7533 -0.4234 0.5033
vn -0.8885 -0.4234 -0.1767
vn 0.6406 -0.4234 0.6406
vn -0.8370 -0.4234 -0.3467
vn -0.6967 -0.1707 0.6967
vn -0.5474 -0.1707 0.8193
vn -0.5259 -0.3225 0.7871
vn -0.6693 -0.3225 0.6693
vn 0.5474 -0.1707 -0.8193
vn 0.6967 -0.1707 -0.6967
vn -0.3771 -0.1707 -0.9103
vn -0.1922 -0.1707 -0.9664
vn -0.3771 -0.1707 0.9103
vn 0.8193 -0.1707 -0.5474
vn -0.0000 -0.1707 -0.9853
vn 0.9103 -0.1707 -0.3771
vn 0.9664 -0.1707 -0.1922
vn -0.8193 -0.1707 0.5474
vn 0.9853 -0.1707 -0.0000
vn -0.9103 -0.1707 0.3771
vn 0.9664 -0.1707 0.1922
vn -0.9664 -0.1707 0.1922
vn 0.9103 -0.1707 0.3771
vn -0.9853 -0.1707 -0.0000
vn 0.8193 -0.1707 0.5474
vn -0.9664 -0.1707 -0.1922
vn 0.6967 -0.1707 0.6967
vn -0.9103 -0.1707 -0.3771
vn 0.5474 -0.1707 0.8193
vn -0.8193 -0.1707 -0.5474
vn 0.3771 -0.1707 0.9103
vn 0.1922 -0.1707 -0.9664
vn -0.6967 -0.1707 -0.6967
vn 0.1922 -0.1707 0.9664
vn 0.3771 -0.1707 -0.9103
vn -0.5474 -0.1707 -0.8193
vn -0.9466 -0.3225 -0.0000
vn -0.9284 -0.3225 0.1847
vn -0.9695 0.1512 0.1928
vn -0.9885 0.1512 -0.0000
vn 0.8745 -0.3225 -0.3622
vn 0.9284 -0.3225 -0.1847
vn -0.7871 -0.3225 0.5259
vn 0.9466 -0.3225 -0.0000
vn -0.8745 -0.3225 0.3622
vn 0.9284 -0.3225 0.1847
vn 0.8745 -0.3225 0.3622
vn 0.7871 -0.3225 0.5259
vn -0.9284 -0.3225 -0.1847
vn 0.6693 -0.3225 0.6693
vn -0.8745 -0.3225 -0.3622
vn 0.5259 -0.3225 0.7871
vn -0.7871 -0.3225 -0.5259
vn 0.3622 -0.3225 0.8745
vn -0.0000 -0.3225 -0.9466
vn 0.1847 -0.3225 -0.9284
vn -0.6693 -0.3225 -0.6693
vn 0.1847 -0.3225 0.9284
vn 0.3622 -0.3225 -0.8745
vn -0.5259 -0.3225 -0.7871
vn -0.0000 -0.3225 0.9466
vn 0.5259 -0.3225 -0.7871
vn -0.3622 -0.3225 -0.8745
vn -0.1847 -0.3225 0.9284
vn 0.6693 -0.3225 -0.6693
vn -0.1847 -0.3225 -0.9284
vn -0.3622 -0.3225 0.8745
vn 0.7871 -0.3225 -0.5259
vn 0.1928 0.1512 -0.9695
vn 0.3783 0.1512 -0.9133
vn 0.9133 0.1512 0.3783
vn 0.8219 0.1512 0.5492
vn -0.9695 0.1512 -0.1928
vn 0.6990 0.1512 0.6990
vn -0.9133 0.1512 -0.3783
vn 0.5492 0.1512 0.8219
vn -0.8219 0.1512 -0.5492
vn 0.3783 0.1512 0.9133
vn -0.6990 0.1512 -0.6990
vn 0.1928 0.1512 0.9695
vn 0.0927 0.8798 -0.4662
vn -0.0000 0.8798 -0.4753
vn -0.0927 0.8798 -0.4662
vn -0.1819 0.8798 -0.4392
vn -0.2641 0.8798 -0.3952
vn -0.3361 0.8798 -0.3361
vn -0.3952 0.8798 -0.2641
vn -0.4392 0.8798 -0.1819
vn -0.4662 0.8798 -0.0927
vn -0.4753 0.8798 -0.0000
vn -0.4662 0.8798 0.0927
vn -0.4392 0.8798 0.1819
vn -0.3952 0.8798 0.2641
vn -0.3361 0.8798 0.3361
vn -0.2641 0.8798 0.3952
vn -0.1819 0.8798 0.4392
vn -0.0927 0.8798 0.4662
vn -0.0000 0.8798 0.4753
vn 0.0927 0.8798 0.4662
vn 0.1819 0.8798 0.4392
vn 0.2641 0.8798 0.3952
vn 0.3361 0.8798 0.3361
vn 0.3952 0.8798 0.2641
vn 0.4392 0.8798 0.1819
vn 0.4662 0.8798 0.0927
vn 0.4753 0.8798 -0.0000
vn 0.4662 0.8798 -0.0927
vn 0.4392 0.8798 -0.1819
vn 0.3952 0.8798 -0.2641
vn 0.3361 0.8798 -0.3361
vn 0.2641 0.8798 -0.3952
vn 0.1819 0.8798 -0.4392
vn -0.5492 0.1512 -0.8219
vn -0.0000 0.1512 0.9885
vn -0.1928 0.1512 -0.9695
vn -0.0000 0.1512 -0.9885
vn -0.3783 0.1512 -0.9133
vn -0.1928 0.1512 0.9695
vn 0.5492 0.1512 -0.8219
vn 0.6990 0.1512 -0.6990
vn -0.3783 0.1512 0.9133
vn 0.8219 0.1512 -0.5492
vn -0.5492 0.1512 0.8219
vn 0.9133 0.1512 -0.3783
vn -0.6990 0.1512 0.6990
vn 0.9695 0.1512 -0.1928
vn -0.8219 0.1512 0.5492
vn 0.9885 0.1512 -0.0000
vn -0.9133 0.1512 0.3783
vn 0.9695 0.1512 0.1928
vt 1.000000 0.500000
vt 1.000000 1.000000
vt 0.968750 1.000000
vt 0.968750 0.500000
vt 0.937500 1.000000
vt 0.937500 0.500000
vt 0.906250 1.000000
vt 0.906250 0.500000
vt 0.875000 1.000000
vt 0.875000 0.500000
vt 0.843750 1.000000
vt 0.843750 0.500000
vt 0.812500 1.000000
vt 0.812500 0.500000
vt 0.781250 1.000000
vt 0.781250 0.500000
vt 0.750000 1.000000
vt 0.750000 0.500000
vt 0.718750 1.000000
vt 0.718750 0.500000
vt 0.687500 1.000000
vt 0.687500 0.500000
vt 0.656250 1.000000
vt 0.656250 0.500000
vt 0.625000 1.000000
vt 0.625000 0.500000
vt 0.593750 1.000000
vt 0.593750 0.500000
vt 0.562500 1.000000
vt 0.562500 0.500000
vt 0.531250 1.000000
vt 0.531250 0.500000
vt 0.500000 1.000000
vt 0.500000 0.500000
vt 0.468750 1.000000
vt 0.468750 0.500000
vt 0.437500 1.000000
vt 0.437500 0.500000
vt 0.406250 1.000000
vt 0.406250 0.500000
vt 0.375000 1.000000
vt 0.375000 0.500000
vt 0.343750 1.000000
vt 0.343750 0.500000
vt 0.312500 1.000000
vt 0.312500 0.500000
vt 0.281250 1.000000
vt 0.281250 0.500000
vt 0.250000 1.000000
vt 0.250000 0.500000
vt 0.218750 1.000000
vt 0.218750 0.500000
vt 0.187500 1.000000
vt 0.187500 0.500000
vt 0.156250 1.000000
vt 0.156250 0.500000
vt 0.125000 1.000000
vt 0.125000 0.500000
vt 0.093750 1.000000
vt 0.093750 0.500000
vt 0.062500 1.000000
vt 0.062500 0.500000
vt 0.031250 1.000000
vt 0.031250 0.500000
vt 0.000000 1.000000
vt 0.000000 0.500000
vt 0.750000 0.490000
vt 0.796822 0.485388
vt 0.841844 0.471731
vt 0.883337 0.449553
vt 0.919706 0.419706
vt 0.949553 0.383337
vt 0.971731 0.341844
vt 0.985388 0.296822
vt 0.990000 0.250000
vt 0.985388 0.203178
vt 0.971731 0.158156
vt 0.949553 0.116663
vt 0.919706 0.080294
vt 0.883337 0.050447
vt 0.841844 0.028269
vt 0.796822 0.014612
vt 0.750000 0.010000
vt 0.703178 0.014612
vt 0.658156 0.028269
vt 0.616663 0.050447
vt 0.580294 0.080294
vt 0.550447 0.116663
vt 0.528269 0.158156
vt 0.514612 0.203178
vt 0.510000 0.250000
vt 0.514612 0.296822
vt 0.528269 0.341844
vt 0.550447 0.383337
vt 0.580294 0.419706
vt 0.616663 0.449553
vt 0.658156 0.471731
vt 0.703178 0.485388
vt 0.937500 1.000000
vt 0.288431 0.443206
vt 0.250000 0.446992
vt 0.211569 0.443206
vt 0.174615 0.431996
vt 0.140557 0.413792
vt 0.110706 0.389294
vt 0.086208 0.359443
vt 0.068004 0.325385
vt 0.056794 0.288431
vt 0.053009 0.250000
vt 0.056794 0.211569
vt 0.068004 0.174615
vt 0.086208 0.140557
vt 0.110706 0.110706
vt 0.140557 0.086208
vt 0.174615 0.068004
vt 0.211569 0.056794
vt 0.250000 0.053009
vt 0.288431 0.056794
vt 0.325385 0.068004
vt 0.359443 0.086208
vt 0.389294 0.110706
vt 0.413792 0.140557
vt 0.431996 0.174615
vt 0.443206 0.211569
vt 0.446991 0.250000
vt 0.443206 0.288431
vt 0.431996 0.325385
vt 0.413792 0.359443
vt 0.389294 0.389294
vt 0.359443 0.413792
vt 0.325385 0.431996
vt 0.295517 0.485517
vt 0.251304 0.489872
vt 0.340590 0.472112
vt 0.298076 0.485008
vt 0.382181 0.450171
vt 0.343000 0.471113
vt 0.418692 0.420537
vt 0.384350 0.448721
vt 0.448721 0.384350
vt 0.420537 0.418692
vt 0.471113 0.343000
vt 0.450171 0.382181
vt 0.485008 0.298076
vt 0.472112 0.340590
vt 0.489872 0.251304
vt 0.485517 0.295517
vt 0.485517 0.204483
vt 0.489872 0.248696
vt 0.472112 0.159410
vt 0.485008 0.201924
vt 0.450171 0.117819
vt 0.471113 0.157000
vt 0.420537 0.081308
vt 0.448721 0.115650
vt 0.384350 0.051279
vt 0.418692 0.079463
vt 0.343000 0.028887
vt 0.382181 0.049829
vt 0.298076 0.014992
vt 0.340590 0.027888
vt 0.251304 0.010128
vt 0.295517 0.014483
vt 0.204483 0.014483
vt 0.248696 0.010128
vt 0.159410 0.027888
vt 0.201924 0.014992
vt 0.117819 0.049829
vt 0.157000 0.028887
vt 0.081308 0.079463
vt 0.115650 0.051279
vt 0.051279 0.115650
vt 0.079463 0.081308
vt 0.028887 0.157000
vt 0.049829 0.117819
vt 0.014992 0.201924
vt 0.027888 0.159410
vt 0.010128 0.248696
vt 0.014483 0.204483
vt 0.014483 0.295517
vt 0.010128 0.251304
vt 0.027888 0.340590
vt 0.014992 0.298076
vt 0.049829 0.382181
vt 0.028887 0.343000
vt 0.079463 0.418692
vt 0.051279 0.384350
vt 0.115650 0.448721
vt 0.081308 0.420537
vt 0.157000 0.471113
vt 0.117819 0.450171
vt 0.201924 0.485008
vt 0.159410 0.472112
vt 0.248696 0.489872
vt 0.204483 0.485517
s 1
usemtl Material.001
f 1/1/1 2/2/1 4/3/2 3/4/2
f 3/4/2 4/3/2 6/5/3 5/6/3
f 5/6/3 6/5/3 8/7/4 7/8/4
f 7/8/4 8/7/4 10/9/5 9/10/5
f 9/10/5 10/9/5 12/11/6 11/12/6
f 11/12/6 12/11/6 14/13/7 13/14/7
f 13/14/7 14/13/7 16/15/8 15/16/8
f 15/16/8 16/15/8 18/17/9 17/18/9
f 17/18/9 18/17/9 20/19/10 19/20/10
f 19/20/10 20/19/10 22/21/11 21/22/11
f 21/22/11 22/21/11 24/23/12 23/24/12
f 23/24/12 24/23/12 26/25/13 25/26/13
f 25/26/13 26/25/13 28/27/14 27/28/14
f 27/28/14 28/27/14 30/29/15 29/30/15
f 29/30/15 30/29/15 32/31/16 31/32/16
f 31/32/16 32/31/16 34/33/17 33/34/17
f 33/34/17 34/33/17 36/35/18 35/36/18
f 35/36/18 36/35/18 38/37/19 37/38/19
f 37/38/19 38/37/19 40/39/20 39/40/20
f 39/40/20 40/39/20 42/41/21 41/42/21
f 41/42/21 42/41/21 44/43/22 43/44/22
f 43/44/22 44/43/22 46/45/23 45/46/23
f 45/46/23 46/45/23 48/47/24 47/48/24
f 47/48/24 48/47/24 50/49/25 49/50/25
f 49/50/25 50/49/25 52/51/26 51/52/26
f 51/52/26 52/51/26 54/53/27 53/54/27
f 53/54/27 54/53/27 56/55/28 55/56/28
f 55/56/28 56/55/28 58/57/29 57/58/29
f 57/58/29 58/57/29 60/59/30 59/60/30
f 59/60/30 60/59/30 62/61/31 61/62/31
f 61/62/31 62/61/31 64/63/34 63/64/34
f 63/64/34 64/63/34 2/65/1 1/66/1
f 3/4/2 5/6/3 67/6/35 66/4/36
f 66/4/36 67/6/35 99/6/37 98/4/38
f 21/22/11 23/24/12 76/24/39 75/22/40
f 39/40/20 41/42/21 85/42/41 84/40/42
f 57/58/29 59/60/30 94/60/43 93/58/44
f 13/14/7 15/16/8 72/16/45 71/14/46
f 31/32/16 33/34/17 81/34/47 80/32/48
f 49/50/25 51/52/26 90/52/49 89/50/50
f 5/6/3 7/8/4 68/8/51 67/6/35
f 23/24/12 25/26/13 77/26/52 76/24/39
f 41/42/21 43/44/22 86/44/53 85/42/41
f 59/60/30 61/62/31 95/62/54 94/60/43
f 15/16/8 17/18/9 73/18/55 72/16/45
f 33/34/17 35/36/18 82/36/56 81/34/47
f 51/52/26 53/54/27 91/54/57 90/52/49
f 7/8/4 9/10/5 69/10/58 68/8/51
f 25/26/13 27/28/14 78/28/59 77/26/52
f 43/44/22 45/46/23 87/46/60 86/44/53
f 61/62/31 63/64/34 96/64/61 95/62/54
f 17/18/9 19/20/10 74/20/62 73/18/55
f 35/36/18 37/38/19 83/38/63 82/36/56
f 53/54/27 55/56/28 92/56/64 91/54/57
f 9/10/5 11/12/6 70/12/65 69/10/58
f 27/28/14 29/30/15 79/30/66 78/28/59
f 45/46/23 47/48/24 88/48/67 87/46/60
f 1/1/1 3/4/2 66/4/36 65/1/68
f 63/64/34 1/66/1 65/66/68 96/64/61
f 19/20/10 21/22/11 75/22/40 74/20/62
f 37/38/19 39/40/20 84/40/42 83/38/63
f 55/56/28 57/58/29 93/58/44 92/56/64
f 11/12/6 13/14/7 71/14/46 70/12/65
f 29/30/15 31/32/16 80/32/48 79/30/66
f 47/48/24 49/50/25 89/50/50 88/48/67
f 101/10/69 102/12/70 134/12/71 133/10/72
f 93/58/44 94/60/43 126/60/73 125/58/74
f 80/32/48 81/34/47 113/34/75 112/32/76
f 67/6/35 68/8/51 100/8/77 99/6/37
f 94/60/43 95/62/54 127/62/78 126/60/73
f 81/34/47 82/36/56 114/36/79 113/34/75
f 68/8/51 69/10/58 101/10/69 100/8/77
f 95/62/54 96/64/61 128/64/80 127/62/78
f 82/36/56 83/38/63 115/38/81 114/36/79
f 69/10/58 70/12/65 102/12/70 101/10/69
f 96/64/61 65/66/68 97/66/82 128/64/80
f 83/38/63 84/40/42 116/40/83 115/38/81
f 70/12/65 71/14/46 103/14/84 102/12/70
f 84/40/42 85/42/41 117/42/85 116/40/83
f 71/14/46 72/16/45 104/16/86 103/14/84
f 85/42/41 86/44/53 118/44/87 117/42/85
f 72/16/45 73/18/55 105/18/88 104/16/86
f 86/44/53 87/46/60 119/46/89 118/44/87
f 73/18/55 74/20/62 106/20/90 105/18/88
f 87/46/60 88/48/67 120/48/91 119/46/89
f 74/20/62 75/22/40 107/22/92 106/20/90
f 88/48/67 89/50/50 121/50/93 120/48/91
f 75/22/40 76/24/39 108/24/94 107/22/92
f 89/50/50 90/52/49 122/52/95 121/50/93
f 76/24/39 77/26/52 109/26/96 108/24/94
f 90/52/49 91/54/57 123/54/97 122/52/95
f 77/26/52 78/28/59 110/28/98 109/26/96
f 91/54/57 92/56/64 124/56/99 123/54/97
f 78/28/59 79/30/66 111/30/100 110/28/98
f 65/1/68 66/4/36 98/4/38 97/1/82
f 92/56/64 93/58/44 125/58/74 124/56/99
f 79/30/66 80/32/48 112/32/76 111/30/100
f 136/16/101 137/18/102 169/18/103 168/16/104
f 128/64/80 97/66/82 129/66/105 160/64/106
f 115/38/81 116/40/83 148/40/107 147/38/108
f 102/12/70 103/14/84 135/14/109 134/12/71
f 116/40/83 117/42/85 149/42/110 148/40/107
f 103/14/84 104/16/86 136/16/101 135/14/109
f 117/42/85 118/44/87 150/44/111 149/42/110
f 104/16/86 105/18/88 137/18/102 136/16/101
f 118/44/87 119/46/89 151/46/112 150/44/111
f 105/18/88 106/20/90 138/20/113 137/18/102
f 119/46/89 120/48/91 152/48/114 151/46/112
f 106/20/90 107/22/92 139/22/115 138/20/113
f 120/48/91 121/50/93 153/50/116 152/48/114
f 107/22/92 108/24/94 140/24/117 139/22/115
f 121/50/93 122/52/95 154/52/118 153/50/116
f 108/24/94 109/26/96 141/26/119 140/24/117
f 122/52/95 123/54/97 155/54/120 154/52/118
f 109/26/96 110/28/98 142/28/121 141/26/119
f 123/54/97 124/56/99 156/56/122 155/54/120
f 110/28/98 111/30/100 143/30/123 142/28/121
f 97/1/82 98/4/38 130/4/124 129/1/105
f 124/56/99 125/58/74 157/58/125 156/56/122
f 111/30/100 112/32/76 144/32/126 143/30/123
f 98/4/38 99/6/37 131/6/127 130/4/124
f 125/58/74 126/60/73 158/60/128 157/58/125
f 112/32/76 113/34/75 145/34/129 144/32/126
f 99/6/37 100/8/77 132/8/130 131/6/127
f 126/60/73 127/62/78 159/62/131 158/60/128
f 113/34/75 114/36/79 146/36/132 145/34/129
f 100/8/77 101/10/69 133/10/72 132/8/130
f 127/62/78 128/64/80 160/64/106 159/62/131
f 114/36/79 115/38/81 147/38/108 146/36/132
f 161/67/133 162/68/134 163/69/135 164/70/136 165/71/137 166/72/138 167/73/139 168/74/104 169/75/103 170/76/140 171/77/141 172/78/142 173/79/143 174/80/144 175/81/145 176/82/146 177/83/147 178/84/148 179/85/149 180/86/150 181/87/151 182/88/152 183/89/153 184/90/154 185/91/155 186/92/156 187/93/157 188/94/158 189/95/159 190/96/160 191/97/161 192/98/162
f 150/44/111 151/46/112 183/46/153 182/44/152
f 137/18/102 138/20/113 170/20/140 169/18/103
f 151/46/112 152/48/114 184/48/154 183/46/153
f 138/20/113 139/22/115 171/22/141 170/20/140
f 152/48/114 153/50/116 185/50/155 184/48/154
f 139/22/115 140/24/117 172/24/142 171/22/141
f 153/50/116 154/52/118 186/52/156 185/50/155
f 140/24/117 141/26/119 173/26/143 172/24/142
f 154/52/118 155/54/120 187/54/157 186/52/156
f 141/26/119 142/28/121 174/28/144 173/26/143
f 155/54/120 156/56/122 188/56/158 187/54/157
f 142/28/121 143/30/123 175/30/145 174/28/144
f 129/1/105 130/4/124 162/4/134 161/1/133
f 156/56/122 157/58/125 189/58/159 188/56/158
f 143/30/123 144/32/126 176/32/146 175/30/145
f 130/4/124 131/6/127 163/6/135 162/4/134
f 157/58/125 158/60/128 190/60/160 189/58/159
f 144/32/126 145/34/129 177/34/147 176/32/146
f 131/6/127 132/8/130 164/8/136 163/6/135
f 158/60/128 159/62/131 191/62/161 190/60/160
f 145/34/129 146/36/132 178/36/148 177/34/147
f 132/8/130 133/10/72 165/10/137 164/8/136
f 159/62/131 160/64/106 192/64/162 191/62/161
f 146/36/132 147/38/108 179/38/149 178/36/148
f 133/10/72 134/12/71 166/12/138 165/10/137
f 160/64/106 129/66/105 161/66/133 192/64/162
f 147/38/108 148/40/107 180/40/150 179/38/149
f 134/12/71 135/14/109 167/14/139 166/12/138
f 148/40/107 149/42/110 181/42/151 180/40/150
f 135/14/109 136/16/101 168/16/104 167/14/139
f 149/42/110 150/44/111 182/44/152 181/42/151
usemtl Material.002
f 14/13/7 12/11/6 198/11/32 199/13/33
f 207/29/163 206/27/164 238/27/165 239/29/166
f 32/31/16 30/29/15 207/29/163 208/31/167
f 50/49/25 48/47/24 216/47/168 217/49/169
f 6/5/3 4/3/2 193/3/170 195/5/171
f 24/23/12 22/21/11 203/21/172 204/23/173
f 42/41/21 40/39/20 212/39/174 213/41/175
f 60/59/30 58/57/29 221/57/176 222/59/177
f 16/15/8 14/13/7 199/13/33 200/15/178
f 34/33/17 32/31/16 208/31/167 209/33/179
f 52/51/26 50/49/25 217/49/169 218/51/180
f 8/7/4 6/5/3 195/5/171 196/7/181
f 26/25/13 24/23/12 204/23/173 205/25/182
f 44/43/22 42/41/21 213/41/175 214/43/183
f 62/61/31 60/59/30 222/59/177 223/61/184
f 18/17/9 16/15/8 200/15/178 201/17/185
f 36/35/18 34/33/17 209/33/179 210/35/186
f 54/53/27 52/51/26 218/51/180 219/53/187
f 10/9/5 8/7/4 196/7/181 197/9/188
f 28/27/14 26/25/13 205/25/182 206/27/164
f 46/45/23 44/43/22 214/43/183 215/45/189
f 64/63/34 62/61/31 223/61/184 224/63/190
f 20/19/10 18/17/9 201/17/185 202/19/191
f 38/37/19 36/35/18 210/35/186 211/37/192
f 56/55/28 54/53/27 219/53/187 220/55/193
f 12/11/6 10/9/5 197/9/188 198/11/32
f 30/29/15 28/27/14 206/27/164 207/29/163
f 48/47/24 46/45/23 215/45/189 216/47/168
f 4/3/2 2/2/1 194/2/194 193/3/170
f 2/65/1 64/63/34 224/63/190 194/65/194
f 22/21/11 20/19/10 202/19/191 203/21/172
f 40/39/20 38/37/19 211/37/192 212/39/174
f 58/57/29 56/55/28 220/55/193 221/57/176
f 242/35/195 241/33/196 273/33/197 274/35/198
f 193/3/170 194/2/194 226/2/199 225/3/200
f 221/57/176 220/55/193 252/55/201 253/57/202
f 208/31/167 207/29/163 239/29/166 240/31/203
f 195/5/171 193/3/170 225/3/200 227/5/204
f 222/59/177 221/57/176 253/57/202 254/59/205
f 209/33/179 208/31/167 240/31/203 241/33/196
f 196/7/181 195/5/171 227/5/204 228/7/206
f 223/61/184 222/59/177 254/59/205 255/61/207
f 210/35/186 209/33/179 241/33/196 242/35/195
f 197/9/188 196/7/181 228/7/206 229/9/208
f 224/63/190 223/61/184 255/61/207 256/63/209
f 211/37/192 210/35/186 242/35/195 243/37/210
f 198/11/32 197/9/188 229/9/208 230/11/211
f 194/65/194 224/63/190 256/63/209 226/65/199
f 212/39/174 211/37/192 243/37/210 244/39/212
f 199/13/33 198/11/32 230/11/211 231/13/213
f 213/41/175 212/39/174 244/39/212 245/41/214
f 200/15/178 199/13/33 231/13/213 232/15/215
f 214/43/183 213/41/175 245/41/214 246/43/216
f 201/17/185 200/15/178 232/15/215 233/17/217
f 215/45/189 214/43/183 246/43/216 247/45/218
f 202/19/191 201/17/185 233/17/217 234/19/219
f 216/47/168 215/45/189 247/45/218 248/47/220
f 203/21/172 202/19/191 234/19/219 235/21/221
f 217/49/169 216/47/168 248/47/220 249/49/222
f 204/23/173 203/21/172 235/21/221 236/23/223
f 218/51/180 217/49/169 249/49/222 250/51/224
f 205/25/182 204/23/173 236/23/223 237/25/225
f 219/53/187 218/51/180 250/51/224 251/53/226
f 206/27/164 205/25/182 237/25/225 238/27/165
f 220/55/193 219/53/187 251/53/226 252/55/201
f 277/41/227 276/39/228 308/39/229 309/41/230
f 229/9/208 228/7/206 260/7/231 261/9/232
f 256/63/209 255/61/207 287/61/233 288/63/234
f 243/37/210 242/35/195 274/35/198 275/37/235
f 230/11/211 229/9/208 261/9/232 262/11/236
f 226/65/199 256/63/209 288/63/234 258/65/237
f 244/39/212 243/37/210 275/37/235 276/39/228
f 231/13/213 230/11/211 262/11/236 263/13/238
f 245/41/214 244/39/212 276/39/228 277/41/227
f 232/15/215 231/13/213 263/13/238 264/15/239
f 246/43/216 245/41/214 277/41/227 278/43/240
f 233/17/217 232/15/215 264/15/239 265/17/241
f 247/45/218 246/43/216 278/43/240 279/45/242
f 234/19/219 233/17/217 265/17/241 266/19/243
f 248/47/220 247/45/218 279/45/242 280/47/244
f 235/21/221 234/19/219 266/19/243 267/21/245
f 249/49/222 248/47/220 280/47/244 281/49/246
f 236/23/223 235/21/221 267/21/245 268/23/247
f 250/51/224 249/49/222 281/49/246 282/51/248
f 237/25/225 236/23/223 268/23/247 269/25/249
f 251/53/226 250/51/224 282/51/248 283/53/250
f 238/27/165 237/25/225 269/25/249 270/27/251
f 252/55/201 251/53/226 283/53/250 284/55/252
f 239/29/166 238/27/165 270/27/251 271/29/253
f 225/3/200 226/2/199 258/2/237 257/3/254
f 253/57/202 252/55/201 284/55/252 285/57/255
f 240/31/203 239/29/166 271/29/253 272/31/256
f 227/5/204 225/3/200 257/3/254 259/5/257
f 254/59/205 253/57/202 285/57/255 286/59/258
f 241/33/196 240/31/203 272/31/256 273/33/197
f 228/7/206 227/5/204 259/5/257 260/7/231
f 255/61/207 254/59/205 286/59/258 287/61/233
f 313/49/259 312/47/260 368/47/261 370/49/262
f 264/15/239 263/13/238 295/13/263 296/15/264
f 278/43/240 277/41/227 309/41/230 310/43/265
f 265/17/241 264/15/239 296/15/264 297/17/266
f 279/45/242 278/43/240 310/43/265 311/45/267
f 266/19/243 265/17/241 297/17/266 298/19/268
f 280/47/244 279/45/242 311/45/267 312/47/260
f 267/21/245 266/19/243 298/19/268 299/21/269
f 281/49/246 280/47/244 312/47/260 313/49/259
f 268/23/247 267/21/245 299/21/269 300/23/270
f 282/51/248 281/49/246 313/49/259 314/51/271
f 269/25/249 268/23/247 300/23/270 301/25/272
f 283/53/250 282/51/248 314/51/271 315/53/273
f 270/27/251 269/25/249 301/25/272 302/27/274
f 284/55/252 283/53/250 315/53/273 316/55/275
f 271/29/253 270/27/251 302/27/274 303/29/276
f 257/3/254 258/2/237 290/2/277 289/3/278
f 285/57/255 284/55/252 316/55/275 317/57/279
f 272/31/256 271/29/253 303/29/276 304/31/280
f 259/5/257 257/3/254 289/3/278 291/5/281
f 286/59/258 285/57/255 317/57/279 318/59/282
f 273/33/197 272/31/256 304/31/280 305/33/283
f 260/7/231 259/5/257 291/5/281 292/7/284
f 287/61/233 286/59/258 318/59/282 319/61/285
f 274/35/198 273/33/197 305/33/283 306/35/286
f 261/9/232 260/7/231 292/7/284 293/9/287
f 288/63/234 287/61/233 319/61/285 320/63/288
f 275/37/235 274/35/198 306/35/286 307/37/289
f 262/11/236 261/9/232 293/9/287 294/11/290
f 258/65/237 288/63/234 320/63/288 290/65/277
f 276/39/228 275/37/235 307/37/289 308/39/229
f 263/13/238 262/11/236 294/11/290 295/13/263
f 291/5/281 289/3/278 322/3/291 326/99/292
f 300/23/270 299/21/269 342/21/293 344/23/294
f 314/51/271 313/49/259 370/49/262 372/51/295
f 301/25/272 300/23/270 344/23/294 346/25/296
f 315/53/273 314/51/271 372/51/295 374/53/297
f 302/27/274 301/25/272 346/25/296 348/27/298
f 316/55/275 315/53/273 374/53/297 376/55/299
f 303/29/276 302/27/274 348/27/298 350/29/300
f 317/57/279 316/55/275 376/55/299 378/57/301
f 304/31/280 303/29/276 350/29/300 352/31/302
f 321/100/303 324/101/304 383/102/305 381/103/306 379/104/307 377/105/308 375/106/309 373/107/310 371/108/311 369/109/312 367/110/313 365/111/314 363/112/315 361/113/316 359/114/317 357/115/318 355/116/319 353/117/320 351/118/321 349/119/322 347/120/323 345/121/324 343/122/325 341/123/326 339/124/327 337/125/328 335/126/329 333/127/330 331/128/331 329/129/332 327/130/333 325/131/334
f 318/59/282 317/57/279 378/57/301 380/59/335
f 305/33/283 304/31/280 352/31/302 354/33/336
f 290/65/277 320/63/288 384/63/337 323/65/338
f 319/61/285 318/59/282 380/59/335 382/61/339
f 306/35/286 305/33/283 354/33/336 356/35/340
f 293/9/287 292/7/284 328/7/341 330/9/342
f 320/63/288 319/61/285 382/61/339 384/63/337
f 307/37/289 306/35/286 356/35/340 358/37/343
f 294/11/290 293/9/287 330/9/342 332/11/344
f 308/39/229 307/37/289 358/37/343 360/39/345
f 295/13/263 294/11/290 332/11/344 334/13/346
f 292/7/284 291/5/281 326/5/292 328/7/341
f 309/41/230 308/39/229 360/39/345 362/41/347
f 296/15/264 295/13/263 334/13/346 336/15/348
f 310/43/265 309/41/230 362/41/347 364/43/349
f 297/17/266 296/15/264 336/15/348 338/17/350
f 311/45/267 310/43/265 364/43/349 366/45/351
f 298/19/268 297/17/266 338/17/350 340/19/352
f 312/47/260 311/45/267 366/45/351 368/47/261
f 299/21/269 298/19/268 340/19/352 342/21/293
f 322/132/291 323/133/338 324/101/304 321/100/303
f 326/134/292 322/135/291 321/100/303 325/131/334
f 328/136/341 326/137/292 325/131/334 327/130/333
f 330/138/342 328/139/341 327/130/333 329/129/332
f 332/140/344 330/141/342 329/129/332 331/128/331
f 334/142/346 332/143/344 331/128/331 333/127/330
f 336/144/348 334/145/346 333/127/330 335/126/329
f 338/146/350 336/147/348 335/126/329 337/125/328
f 340/148/352 338/149/350 337/125/328 339/124/327
f 342/150/293 340/151/352 339/124/327 341/123/326
f 344/152/294 342/153/293 341/123/326 343/122/325
f 346/154/296 344/155/294 343/122/325 345/121/324
f 348/156/298 346/157/296 345/121/324 347/120/323
f 350/158/300 348/159/298 347/120/323 349/119/322
f 352/160/302 350/161/300 349/119/322 351/118/321
f 354/162/336 352/163/302 351/118/321 353/117/320
f 356/164/340 354/165/336 353/117/320 355/116/319
f 358/166/343 356/167/340 355/116/319 357/115/318
f 360/168/345 358/169/343 357/115/318 359/114/317
f 362/170/347 360/171/345 359/114/317 361/113/316
f 364/172/349 362/173/347 361/113/316 363/112/315
f 366/174/351 364/175/349 363/112/315 365/111/314
f 368/176/261 366/177/351 365/111/314 367/110/313
f 370/178/262 368/179/261 367/110/313 369/109/312
f 372/180/295 370/181/262 369/109/312 371/108/311
f 374/182/297 372/183/295 371/108/311 373/107/310
f 376/184/299 374/185/297 373/107/310 375/106/309
f 378/186/301 376/187/299 375/106/309 377/105/308
f 380/188/335 378/189/301 377/105/308 379/104/307
f 382/190/339 380/191/335 379/104/307 381/103/306
f 384/192/337 382/193/339 381/103/306 383/102/305
f 323/194/338 384/195/337 383/102/305 324/101/304
f 289/3/278 290/2/277 323/2/338 322/3/291
